HIERARCHY
ROOT hip
{
  OFFSET 0 0 0
  CHANNELS 6 Xposition Yposition Zposition Zrotation Yrotation Xrotation
  JOINT abdomen
  {
    OFFSET 0 20.6881 -0.73152
    CHANNELS 3 Zrotation Xrotation Yrotation
    JOINT chest
    {
      OFFSET 0 11.7043 -0.48768
      CHANNELS 3 Zrotation Xrotation Yrotation
      JOINT neck
      {
        OFFSET 0 22.1894 -2.19456
        CHANNELS 3 Zrotation Xrotation Yrotation
        JOINT head
        {
          OFFSET -0.24384 7.07133 1.2192
          CHANNELS 3 Zrotation Xrotation Yrotation
          JOINT leftEye
          {
            OFFSET 4.14528 8.04674 8.04672
            CHANNELS 3 Zrotation Xrotation Yrotation
            End Site
            {
              OFFSET 1 0 0
            }
          }
          JOINT rightEye
          {
            OFFSET -3.6576 8.04674 8.04672
            CHANNELS 3 Zrotation Xrotation Yrotation
            End Site
            {
              OFFSET 1 0 0
            }
          }
        }
      }
      JOINT rCollar
      {
        OFFSET -2.68224 19.2634 -4.8768
        CHANNELS 3 Zrotation Xrotation Yrotation
        JOINT rShldr
        {
          OFFSET -8.77824 -1.95073 1.46304
          CHANNELS 3 Zrotation Xrotation Yrotation
          JOINT rForeArm
          {
            OFFSET -28.1742 -1.7115 0.48768
            CHANNELS 3 Zrotation Xrotation Yrotation
            JOINT rHand
            {
              OFFSET -22.5879 0.773209 7.07136
              CHANNELS 3 Zrotation Xrotation Yrotation
              JOINT rThumb1
              {
                OFFSET -1.2192 -0.487915 3.41376
                CHANNELS 3 Zrotation Xrotation Yrotation
                JOINT rThumb2
                {
                  OFFSET -3.37035 -0.52449 3.41376
                  CHANNELS 3 Zrotation Xrotation Yrotation
                  End Site
                  {
                    OFFSET -1.78271 -1.18214 1.43049
                  }
                }
              }
              JOINT rIndex1
              {
                OFFSET -7.75947 0.938293 5.60832
                CHANNELS 3 Zrotation Xrotation Yrotation
                JOINT rIndex2
                {
                  OFFSET -2.54057 -0.884171 1.56538
                  CHANNELS 3 Zrotation Xrotation Yrotation
                  End Site
                  {
                    OFFSET -1.62519 -0.234802 1.16502
                  }
                }
              }
              JOINT rMid1
              {
                OFFSET -8.24714 1.18213 3.41376
                CHANNELS 3 Zrotation Xrotation Yrotation
                JOINT rMid2
                {
                  OFFSET -3.10165 -0.590103 1.0647
                  CHANNELS 3 Zrotation Xrotation Yrotation
                  End Site
                  {
                    OFFSET -2.48547 -0.328903 0.83742
                  }
                }
              }
              JOINT rRing1
              {
                OFFSET -8.82822 0.546677 1.51678
                CHANNELS 3 Zrotation Xrotation Yrotation
                JOINT rRing2
                {
                  OFFSET -2.60934 -0.819778 -0.0198488
                  CHANNELS 3 Zrotation Xrotation Yrotation
                  End Site
                  {
                    OFFSET -2.33842 -0.294052 0.168128
                  }
                }
              }
              JOINT rPinky1
              {
                OFFSET -8.27202 -0.0477905 -0.4584
                CHANNELS 3 Zrotation Xrotation Yrotation
                JOINT rPinky2
                {
                  OFFSET -1.82734 -0.647385 -0.700984
                  CHANNELS 3 Zrotation Xrotation Yrotation
                  End Site
                  {
                    OFFSET -1.69225 -0.51767 -0.607171
                  }
                }
              }
            }
          }
        }
      }
      JOINT lCollar
      {
        OFFSET 2.68224 19.2634 -4.8768
        CHANNELS 3 Zrotation Xrotation Yrotation
        JOINT lShldr
        {
          OFFSET 8.77824 -1.95073 1.46304
          CHANNELS 3 Zrotation Xrotation Yrotation
          JOINT lForeArm
          {
            OFFSET 28.1742 -1.7115 0.48768
            CHANNELS 3 Zrotation Xrotation Yrotation
            JOINT lHand
            {
              OFFSET 22.5879 0.773209 7.07136
              CHANNELS 3 Zrotation Xrotation Yrotation
              JOINT lThumb1
              {
                OFFSET 1.2192 -0.487915 3.41376
                CHANNELS 3 Zrotation Xrotation Yrotation
                JOINT lThumb2
                {
                  OFFSET 3.37035 -0.52449 3.41376
                  CHANNELS 3 Zrotation Xrotation Yrotation
                  End Site
                  {
                    OFFSET 1.78271 -1.18214 1.43049
                  }
                }
              }
              JOINT lIndex1
              {
                OFFSET 7.75947 0.938293 5.60832
                CHANNELS 3 Zrotation Xrotation Yrotation
                JOINT lIndex2
                {
                  OFFSET 2.54057 -0.884171 1.56538
                  CHANNELS 3 Zrotation Xrotation Yrotation
                  End Site
                  {
                    OFFSET 1.62519 -0.234802 1.16502
                  }
                }
              }
              JOINT lMid1
              {
                OFFSET 8.24714 1.18213 3.41376
                CHANNELS 3 Zrotation Xrotation Yrotation
                JOINT lMid2
                {
                  OFFSET 3.10165 -0.590103 1.0647
                  CHANNELS 3 Zrotation Xrotation Yrotation
                  End Site
                  {
                    OFFSET 2.48547 -0.328903 0.83742
                  }
                }
              }
              JOINT lRing1
              {
                OFFSET 8.82822 0.546677 1.51678
                CHANNELS 3 Zrotation Xrotation Yrotation
                JOINT lRing2
                {
                  OFFSET 2.60934 -0.819778 -0.0198488
                  CHANNELS 3 Zrotation Xrotation Yrotation
                  End Site
                  {
                    OFFSET 2.33842 -0.294052 0.168128
                  }
                }
              }
              JOINT lPinky1
              {
                OFFSET 8.27202 -0.0477905 -0.4584
                CHANNELS 3 Zrotation Xrotation Yrotation
                JOINT lPinky2
                {
                  OFFSET 1.82734 -0.647385 -0.700984
                  CHANNELS 3 Zrotation Xrotation Yrotation
                  End Site
                  {
                    OFFSET 1.69225 -0.51767 -0.607171
                  }
                }
              }
            }
          }
        }
      }
    }
  }
  JOINT rButtock
  {
    OFFSET -8.77824 4.35084 1.2192
    CHANNELS 3 Zrotation Xrotation Yrotation
    JOINT rThigh
    {
      OFFSET 0 -1.70687 -2.19456
      CHANNELS 3 Zrotation Xrotation Yrotation
      JOINT rShin
      {
        OFFSET 0 -36.8199 0.73152
        CHANNELS 3 Zrotation Xrotation Yrotation
        JOINT rFoot
        {
          OFFSET 0.73152 -45.1104 -5.12064
          CHANNELS 3 Zrotation Xrotation Yrotation
          End Site
          {
            OFFSET -1.1221 -3.69964 12.103
          }
        }
      }
    }
  }
  JOINT lButtock
  {
    OFFSET 8.77824 4.35084 1.2192
    CHANNELS 3 Zrotation Xrotation Yrotation
    JOINT lThigh
    {
      OFFSET 0 -1.70687 -2.19456
      CHANNELS 3 Zrotation Xrotation Yrotation
      JOINT lShin
      {
        OFFSET 0 -36.8199 0.73152
        CHANNELS 3 Zrotation Xrotation Yrotation
        JOINT lFoot
        {
          OFFSET -0.73152 -45.1104 -5.12064
          CHANNELS 3 Zrotation Xrotation Yrotation
          End Site
          {
            OFFSET 1.1221 -3.69964 12.103
          }
        }
      }
    }
  }
}
MOTION
Frames:	4
Frame Time:	0.03333
0.011920143850147724 -0.33085906505584717 0.0748843401670456 -19.251433163881302 -2.8955673426389694 3.987918421626091 -1.7826475761830807 13.827042281627655 3.5953281819820404 2.5098824501037598 -9.50714886188507 1.007578857243061 -4.586079865694046 14.764545410871506 -3.4185826778411865 8.51817011833191 -23.46500515937805 -5.100575499236584 0.021292480523698032 0.26317637879401445 -0.02783031784929335 -0.04588084586430341 0.14301442075520754 -0.06892187520861626 0.04488630685955286 0.037011519307270646 0.006623673252761364 44.43274229764938 27.021968364715576 12.144869416952133 -23.48168045282364 -27.581216990947723 61.63788199424744 -4.512252397835255 -11.066217049956322 -3.814881071448326 -0.019931610440835357 -0.026498360093683004 0.21610029973089695 0.04550023935735226 -0.026121331611648202 -0.037300181575119495 -0.004061279614688829 -0.06690418347716331 0.12424176558852196 7.791217043995857 5.488629452884197 0.4975922266021371 0.06723461381625384 -0.07075014640577137 0.05184205016121268 2.8948133066296577 1.0288387164473534 0.03145002177916467 -0.30649338383227587 0.07617834024131298 -0.03660359303466976 10.32928615808487 0.7456496637314558 -0.05306742154061794 0.016616808716207743 0.04509585443884134 0.008879662491381168 2.218475863337517 -0.7845297083258629 -0.3938209544867277 -0.018506278283894062 0.11476093204692006 0.060252242255955935 -50.50418257713318 28.802475035190582 -25.217458605766296 22.051973193883896 -24.559598565101624 -56.83221638202667 4.947594366967678 -11.935160905122757 3.5226111486554146 -0.13714784290641546 0.002342191874049604 -0.03268464468419552 0.00674546230584383 -0.025583223905414343 -0.1534605771303177 -0.19407643005251884 0.09755041217431426 0.007976983906701207 -7.806907966732979 5.5163658410310745 -0.44702210929244757 -0.03028207167517394 -0.0029383599758148193 -0.010068153496831656 -2.9770877212285995 0.9562889020889997 -0.09362173033878207 -0.35379543900489807 -0.01921442337334156 0.005624676123261452 -10.30144415795803 0.884667718783021 -0.06728631444275379 0.02442212076857686 -0.0098816875834018 0.010815588757395744 -2.2884855419397354 -0.7752239517867565 0.24613079382106662 0.017002837266772985 -0.019944227824453264 -0.06045248592272401 -31.628117859363556 -31.71631157398224 -26.11672282218933 -20.12071967124939 57.95089602470398 21.03322058916092 -4.4773659110069275 -10.260578691959381 -9.289750456809998 -0.06442439742386341 0.034374038223177195 -0.029072421602904797 35.84772348403931 -31.824332177639008 29.05288875102997 22.42231786251068 59.1938853263855 -20.434495210647583 5.074478276073933 -10.658214166760445 12.618980705738068
0.007836374454200268 -1.0027451515197754 0.19599954783916473 -21.473636627197266 -1.7012621462345123 6.642005816102028 -2.390261795371771 14.424768537282944 3.79534050822258 2.757667936384678 -9.794094935059547 1.0708600468933582 -4.761756844818592 15.315027236938477 -3.624872714281082 8.818181902170181 -24.73500967025757 -5.19546166062355 0.022025263169780374 0.1855810359120369 -0.07955988286994398 -0.05053489236161113 0.14474241295829415 -0.1935031497851014 0.19721367163583636 0.13093818328343332 -0.12951905373483896 50.34316420555115 30.560893714427948 14.027692973613739 -24.119625091552734 -30.474333465099335 67.83941745758057 -5.440730899572372 -14.638364911079407 -5.019622407853603 -0.11308588203974068 0.015118239680305123 -0.009842952713370323 -0.009356027003377676 0.036614007549360394 -0.008791107684373856 -0.02271417179144919 -0.15881418250501156 0.11372465640306473 7.821011021733284 5.534766800701618 0.5377449793741107 0.16079318127594888 -0.08552515762858093 0.10389635106548667 2.9069989174604416 1.0066998470574617 0.03198130871169269 -0.24246850982308388 -0.003293459303677082 0.0321341841481626 10.462553054094315 0.8527861442416906 0.034017786383628845 0.051850012969225645 0.00767627265304327 0.10730447480455041 2.268076278269291 -0.7968160696327686 -0.3572828136384487 0.05660016322508454 0.10792163433507085 0.10485186707228422 -57.86800503730774 32.01960772275925 -25.48555612564087 22.971459925174713 -27.541539072990417 -61.98265850543976 6.062613129615784 -11.323212236166 3.6128537356853485 -0.14267184189520776 -0.035901975352317095 -0.12942194938659668 -0.09897960000671446 -0.0032897922210395336 0.05293138325214386 -0.018876800313591957 0.12835107743740082 -0.040011287201195955 -7.798195481300354 5.514366589486599 -0.4947475343942642 -0.1564684440381825 -0.13592844363301992 0.07055295165628195 -2.976008802652359 0.9733863919973373 -0.017041289247572422 0.07383819669485092 -0.12945830589160323 -0.11667158687487245 -10.300290808081627 0.8570294827222824 -0.0011661532334983349 0.12888707919046283 -0.029564842698164284 0.013886288506910205 -2.2450855560600758 -0.7922093756496906 0.2003496140241623 0.05048125342000276 -0.04555308725684881 0.020800656639039516 -34.42400425672531 -34.677448868751526 -29.798121750354767 -21.886214017868042 63.320345878601074 21.710761338472366 -4.567401297390461 -10.593069344758987 -9.998369961977005 0.04576468840241432 0.14749980764463544 -0.08828203892335296 41.17293298244476 -33.53539377450943 34.868459701538086 23.821344673633575 64.03171062469482 -23.68127703666687 5.016479529440403 -10.979980006814003 13.625442087650299
-0.37485953886061907 -2.0902326107025146 0.6876174062490463 -16.77454322576523 -19.725191742181778 -13.876090496778488 0.2904022252187133 19.55049678683281 5.574023947119713 0.32841939479112625 -8.95227424800396 1.6436409205198288 -4.404343441128731 14.24094870686531 -2.329403143376112 6.363736689090729 -22.600813508033752 -3.6354976147413254 -0.006923368200659752 1.0195676609873772 -0.28803601395338774 -0.13822856359183788 0.6080028461292386 -0.4453863389790058 0.8518809825181961 0.5290492158383131 0.2664117934182286 46.831342577934265 31.923225224018097 13.329511284828186 -22.68662005662918 -23.446744680404663 52.6499605178833 -1.8611293472349644 0.8715561591088772 -1.3597974926233292 -0.5739968782290816 0.11149612837471068 -0.8034954406321049 -0.04270684439688921 0.31050515128299594 -0.1419864222407341 -0.2693294710479677 -0.08288034237921238 0.3267857199534774 8.025092259049416 5.591395944356918 0.9454196691513062 0.22480012848973274 -0.8428739570081234 -0.04832586273550987 3.1679916009306908 1.3274548295885324 -0.07268885965459049 -0.9986462630331516 0.8480938710272312 0.00010016374289989471 10.277097076177597 1.2948022037744522 0.010591289028525352 -0.3553636930882931 0.2144789043813944 0.21230931160971522 2.3503490164875984 -1.01430575363338 -1.65007084608078 0.489401388913393 0.4240772780030966 0.1546889659948647 -50.74014186859131 27.490180134773254 -24.395061135292053 23.00134778022766 -23.440876007080078 -54.32662010192871 4.461245499551296 -13.81472960114479 4.898842535912991 -0.06363459164276719 0.09469466633163393 -0.3753136284649372 -0.4124564817175269 -0.6049517495557666 0.09297257289290428 0.900585874915123 0.24038129020482302 0.11937478207983077 -7.903038337826729 5.287906341254711 -0.28891232097521424 -0.7252932898700237 -0.20324266981333494 0.2847165078856051 -3.0567486584186554 1.025660214945674 -0.13297566678375006 -1.1997686885297298 -0.29967849841341376 -0.44132933020591736 -10.52642047405243 0.6618326436728239 -0.0032948004081845284 -0.04035905236378312 -0.5608097556978464 -0.01583014614880085 -2.2443903610110283 -0.9320296626538038 0.8457880094647408 -0.049735798384062946 0.3259231382980943 0.4401544388383627 -18.44700515270233 -24.555736184120178 -17.705332785844803 -6.4059653878211975 46.703755259513855 -1.3629215955734253 -8.969683796167374 -14.188633561134338 -19.106996208429337 -0.029710368253290653 0.4114764276891947 -0.5140699166804552 40.72598040103912 -37.46448129415512 26.180969774723053 22.32071042060852 52.86498785018921 -12.524558901786804 2.423669546842575 -3.2671022415161133 9.074373096227646
-0.5478205950930715 -2.4099321365356445 1.3876339048147202 2.1845586597919464 -31.176393628120422 -22.63083279132843 2.4068046547472477 26.623810529708862 9.844745770096779 -1.8187734112143517 -9.458137527108192 2.298028003424406 -3.8520199432969093 12.045697420835495 0.8768553659319878 3.7453702837228775 -22.564480304718018 0.6139197573065758 -0.13235272374004126 0.6359700299799442 -0.395754617638886 0.21063098218291998 0.5964759271591902 -0.32957519637420774 1.5690448321402073 1.1950587294995785 0.9252905286848545 24.75954920053482 36.38921856880188 22.129139006137848 -25.024090111255646 -23.652400374412537 57.57538676261902 2.8807588666677475 15.540049821138382 0.2910015732049942 -1.0549677908420563 0.19380359910428524 -1.6883072443306446 -0.007720151916146278 -0.01901809824630618 -0.24751076940447092 -0.29654307989403605 0.40803687181323767 -0.07191454991698265 8.927658945322037 5.255760736763477 0.849322322756052 -0.2170346723869443 -1.158424448221922 -0.3417698387056589 3.8998373597860336 1.2089901231229305 0.09059556992724538 -1.0537575278431177 1.5499966219067574 -0.05371861159801483 9.945216625928879 2.2846409305930138 -0.14522240264341235 -0.3201299230568111 0.2839980321004987 -0.08371230913326144 2.1173188649117947 -1.0284610278904438 -2.322738189250231 0.9459768980741501 0.5093350214883685 -0.2936658449470997 -45.144206285476685 22.905297875404358 -24.10310000181198 24.323301315307617 -24.236872494220734 -58.91416311264038 5.893993377685547 -25.035422444343567 5.693191811442375 0.07012465735897422 0.1343031192664057 -0.281980843283236 -0.5182558810338378 -1.2725190818309784 0.5960827320814133 2.416994534432888 -0.1881032343953848 -0.05447653471492231 -8.210408762097359 5.298571139574051 -0.6782828411087394 -0.9318652097135782 -0.5142523068934679 0.8804839756339788 -2.9391733556985855 0.8952866680920124 -0.8582087326794863 -0.8308405615389347 -0.3543047234416008 -0.440826416015625 -10.61450019478798 -0.3996659070253372 -0.0008496525697410107 -0.5260070040822029 -1.0620270296931267 -0.2532363636419177 -2.5600224919617176 -1.2872338481247425 1.607709713280201 -0.25844372576102614 1.6160733439028263 1.0960448160767555 -23.182085752487183 -20.482014566659927 -21.55831664800644 -11.383834183216095 49.80950117111206 6.309912800788879 -10.856354981660843 -18.698129653930664 -24.606588184833527 -0.40253075771033764 0.9176386054605246 -0.8677908405661583 59.44196283817291 -46.93688750267029 40.7358455657959 36.88402444124222 51.298035979270935 -22.876608967781067 -2.4309175461530685 2.495161145925522 6.42156645655632
